<svg width="10" height="18" viewBox="0 0 10 18" fill="none" xmlns="http://www.w3.org/2000/svg">
<path d="M9.39749 16.1025C9.45276 16.154 9.49709 16.2161 9.52783 16.2851C9.55857 16.3541 9.5751 16.4286 9.57644 16.5041C9.57777 16.5796 9.56388 16.6547 9.53559 16.7247C9.50729 16.7947 9.46519 16.8584 9.41177 16.9118C9.35836 16.9652 9.29473 17.0073 9.22469 17.0356C9.15465 17.0639 9.07963 17.0778 9.0041 17.0764C8.92857 17.0751 8.85409 17.0586 8.78509 17.0278C8.71609 16.9971 8.65399 16.9528 8.60249 16.8975L1.10249 9.3975C0.997156 9.29203 0.937988 9.14906 0.937988 9C0.937988 8.85094 0.997156 8.70797 1.10249 8.6025L8.60249 1.1025C8.70912 1.00314 8.85016 0.949047 8.99588 0.951618C9.14161 0.954189 9.28065 1.01322 9.38371 1.11628C9.48677 1.21934 9.5458 1.35838 9.54837 1.50411C9.55095 1.64983 9.49685 1.79087 9.39749 1.8975L2.29593 9L9.39749 16.1025Z" fill="#181819"/>
</svg>
