<svg width="15" height="14" viewBox="0 0 15 14" fill="none" xmlns="http://www.w3.org/2000/svg">
<path d="M8.25067 1.08734C8.11301 0.81405 7.8221 0.640137 7.50262 0.640137C7.18314 0.640137 6.89483 0.81405 6.75457 1.08734L5.08444 4.3743L1.35457 4.90101C1.04288 4.94573 0.783137 5.15442 0.687034 5.44014C0.59093 5.72585 0.668852 6.04138 0.892228 6.25256L3.59872 8.81405L2.95976 12.4339C2.90781 12.7321 3.03768 13.0352 3.29483 13.2116C3.55197 13.388 3.89223 13.4103 4.17275 13.2687L7.50522 11.5668L10.8377 13.2687C11.1182 13.4103 11.4585 13.3904 11.7156 13.2116C11.9727 13.0327 12.1026 12.7321 12.0507 12.4339L11.4091 8.81405L14.1156 6.25256C14.339 6.04138 14.4195 5.72585 14.3208 5.44014C14.2221 5.15442 13.965 4.94573 13.6533 4.90101L9.9208 4.3743L8.25067 1.08734Z" fill="#F19A37"/>
</svg>
